<svg xmlns="http://www.w3.org/2000/svg" width="42.082" height="41.123" viewBox="0 0 42.082 41.123">
  <path id="Path_716" data-name="Path 716" d="M20997.4,18628.91a8.926,8.926,0,0,0,2.332.533c7.332.68,6.918,2.9,6.926,5.811.016,3.031-.609,3.852.719,5.639a5.658,5.658,0,0,0,6.043,1.742c1.883-.709,2.141-3.164.625-6.4a14.274,14.274,0,0,1-1.5-4.348c-.039-.48-.031-1.236.84-1.4,1.727-.34,3.617.488,7.188,1.574s5.012.449,5.789-1.385-.574-4.23-2.758-5.043-6.512-.383-8.187-1.312-2.293-1.531-2.535-4.182c-.258-2.646.363-5.77-1.953-7.52a3.951,3.951,0,0,0-5.449.721c-.668.943-.668,2.092.645,4.463a10.55,10.55,0,0,1,1.016,4.6c-.242.908-1.621,1.607-2.406,1.838-1.641.482-3.426-.465-5-1.213-1.555-.74-3.434-1.133-4.746,0a2.729,2.729,0,0,0-1.121,3.041,2.627,2.627,0,0,0,1.523,1.875A8.6,8.6,0,0,0,20997.4,18628.91Z" transform="translate(-12481.311 -25120.977) rotate(22)" fill="#001f3f"/>
</svg>
