<svg xmlns="http://www.w3.org/2000/svg" width="33.143" height="42.418" viewBox="0 0 33.143 42.418">
  <g id="Group_259" data-name="Group 259" transform="translate(-765.207 -560.467)">
    <path id="Path_713" data-name="Path 713" d="M22396.332,18707.908h29.5l.113,26.512s.295,3.518-14.74,3.6-14.76-3.6-14.76-3.6Z" transform="translate(-21628.965 -18135.139)" fill="#001f3f"/>
    <g id="Group_255" data-name="Group 255" transform="translate(774.76 576.791)">
      <rect id="Rectangle_269" data-name="Rectangle 269" width="2.305" height="20.802" rx="1.152" transform="translate(0 0)" fill="#0074d9"/>
      <rect id="Rectangle_272" data-name="Rectangle 272" width="2.305" height="20.802" rx="1.152" transform="translate(6.519 0)" fill="#0074d9"/>
      <rect id="Rectangle_273" data-name="Rectangle 273" width="2.305" height="20.802" rx="1.152" transform="translate(13.038 0)" fill="#0074d9"/>
    </g>
    <path id="Path_714" data-name="Path 714" d="M2.354-23.9H12.548s-.889-5.273,4.048-5.287,3.97,5.287,3.97,5.287H30.788a2.354,2.354,0,0,1,2.354,2.354v.181a2.354,2.354,0,0,1-2.354,2.354H2.354A2.354,2.354,0,0,1,0-21.369v-.181A2.354,2.354,0,0,1,2.354-23.9Z" transform="translate(765.208 589.658)" fill="#001f3f"/>
  </g>
</svg>
