<svg id="Group_184" data-name="Group 184" xmlns="http://www.w3.org/2000/svg" width="48.52" height="52.186" viewBox="0 0 48.52 52.186">
  <path id="Path_283" data-name="Path 283" d="M1.9,0H45.381l3.138,4.128v43.44a1.9,1.9,0,0,1-1.9,1.9H1.9a1.9,1.9,0,0,1-1.9-1.9V1.9A1.9,1.9,0,0,1,1.9,0Z" transform="translate(0 1.417)" fill="#d81e5b"/>
  <path id="Rectangle_31" data-name="Rectangle 31" d="M0,0H26.638a0,0,0,0,1,0,0V16.541a2,2,0,0,1-2,2H2a2,2,0,0,1-2-2V0A0,0,0,0,1,0,0Z" transform="translate(11.416 0)" fill="#f76f8e"/>
  <g id="Path_474" data-name="Path 474" transform="translate(23.784 5.222)" fill="none">
    <path d="M4.757,0A4.757,4.757,0,1,1,0,4.757,4.757,4.757,0,0,1,4.757,0Z" stroke="none"/>
    <path d="M 4.756755828857422 1.999999523162842 C 3.23667573928833 1.999999523162842 1.999995708465576 3.23669958114624 1.999995708465576 4.756799697875977 C 1.999995708465576 6.276879787445068 3.23667573928833 7.513559818267822 4.756755828857422 7.513559818267822 C 6.276835918426514 7.513559818267822 7.513515949249268 6.276859760284424 7.513515949249268 4.756759643554688 C 7.513515949249268 3.236679553985596 6.276835918426514 1.999999523162842 4.756755828857422 1.999999523162842 M 4.756755828857422 0 C 7.383835792541504 0 9.513515472412109 2.129669666290283 9.513515472412109 4.756759643554688 C 9.513515472412109 7.383889675140381 7.383835792541504 9.513559341430664 4.756755828857422 9.513559341430664 C 2.12967586517334 9.513559341430664 -3.814697265625e-06 7.383889675140381 -3.814697265625e-06 4.756799697875977 C -3.814697265625e-06 2.129669666290283 2.12967586517334 0 4.756755828857422 0 Z" stroke="none" fill="#fff"/>
  </g>
  <path id="Path_473" data-name="Path 473" d="M2.4,0h25.98a2.4,2.4,0,0,1,2.4,2.394V24.27H0V2.394A2.4,2.4,0,0,1,2.4,0Z" transform="translate(9.343 27.916)" fill="#fff"/>
</svg>
