<svg xmlns="http://www.w3.org/2000/svg" width="444.008" height="52.949" viewBox="0 0 444.008 52.949">
  <defs>
    <style>
      .cls-1 {
        fill: #fff;
      }
    </style>
  </defs>
  <g id="Group_170" data-name="Group 170" transform="translate(81.879 538.885) rotate(180)">
    <g id="Group_153" data-name="Group 153" transform="translate(-215.215 485.936)">
      <rect id="Rectangle_68" data-name="Rectangle 68" class="cls-1" width="3.265" height="38.756" transform="translate(25.302 45.852) rotate(180)"/>
      <rect id="Rectangle_107" data-name="Rectangle 107" class="cls-1" width="3.265" height="25.655" transform="translate(17.956 39.302) rotate(180)"/>
      <rect id="Rectangle_108" data-name="Rectangle 108" class="cls-1" width="3.265" height="40.939" transform="translate(10.61 46.944) rotate(180)"/>
      <rect id="Rectangle_109" data-name="Rectangle 109" class="cls-1" width="3.265" height="40.939" transform="translate(3.265 46.944) rotate(180)"/>
      <rect id="Rectangle_69" data-name="Rectangle 69" class="cls-1" width="3.265" height="30.022" transform="translate(32.648 41.485) rotate(180)"/>
      <rect id="Rectangle_70" data-name="Rectangle 70" class="cls-1" width="3.265" height="16.922" transform="translate(39.993 34.935) rotate(180)"/>
      <rect id="Rectangle_71" data-name="Rectangle 71" class="cls-1" width="3.265" height="16.922" transform="translate(47.339 34.935) rotate(180)"/>
      <rect id="Rectangle_72" data-name="Rectangle 72" class="cls-1" width="3.265" height="30.022" transform="translate(54.685 41.485) rotate(180)"/>
      <rect id="Rectangle_73" data-name="Rectangle 73" class="cls-1" width="3.265" height="25.655" transform="translate(62.03 39.302) rotate(180)"/>
      <rect id="Rectangle_74" data-name="Rectangle 74" class="cls-1" width="3.265" height="30.022" transform="translate(69.376 41.485) rotate(180)"/>
      <rect id="Rectangle_75" data-name="Rectangle 75" class="cls-1" width="3.265" height="40.939" transform="translate(76.722 46.944) rotate(180)"/>
      <rect id="Rectangle_76" data-name="Rectangle 76" class="cls-1" width="3.265" height="52.948" transform="translate(84.068 52.948) rotate(180)"/>
      <rect id="Rectangle_77" data-name="Rectangle 77" class="cls-1" width="3.265" height="44.215" transform="translate(91.413 48.581) rotate(180)"/>
      <rect id="Rectangle_78" data-name="Rectangle 78" class="cls-1" width="3.265" height="33.297" transform="translate(98.759 43.123) rotate(180)"/>
      <rect id="Rectangle_79" data-name="Rectangle 79" class="cls-1" width="3.265" height="23.472" transform="translate(106.105 38.21) rotate(180)"/>
      <rect id="Rectangle_80" data-name="Rectangle 80" class="cls-1" width="3.265" height="20.197" transform="translate(113.45 36.573) rotate(180)"/>
      <rect id="Rectangle_81" data-name="Rectangle 81" class="cls-1" width="3.265" height="20.197" transform="translate(120.796 36.573) rotate(180)"/>
      <rect id="Rectangle_82" data-name="Rectangle 82" class="cls-1" width="3.265" height="13.646" transform="translate(128.142 33.297) rotate(180)"/>
      <rect id="Rectangle_83" data-name="Rectangle 83" class="cls-1" width="3.265" height="35.481" transform="translate(135.488 44.215) rotate(180)"/>
      <rect id="Rectangle_84" data-name="Rectangle 84" class="cls-1" width="3.265" height="25.655" transform="translate(142.833 39.302) rotate(180)"/>
    </g>
    <g id="Group_168" data-name="Group 168" transform="translate(-219.296 538.885) rotate(180)">
      <rect id="Rectangle_68-2" data-name="Rectangle 68" class="cls-1" width="3.265" height="38.756" transform="translate(25.302 45.852) rotate(180)"/>
      <rect id="Rectangle_107-2" data-name="Rectangle 107" class="cls-1" width="3.265" height="25.655" transform="translate(17.956 39.302) rotate(180)"/>
      <rect id="Rectangle_108-2" data-name="Rectangle 108" class="cls-1" width="3.265" height="40.939" transform="translate(10.61 46.944) rotate(180)"/>
      <rect id="Rectangle_109-2" data-name="Rectangle 109" class="cls-1" width="3.265" height="40.939" transform="translate(3.265 46.944) rotate(180)"/>
      <rect id="Rectangle_69-2" data-name="Rectangle 69" class="cls-1" width="3.265" height="30.022" transform="translate(32.648 41.485) rotate(180)"/>
      <rect id="Rectangle_70-2" data-name="Rectangle 70" class="cls-1" width="3.265" height="16.922" transform="translate(39.993 34.935) rotate(180)"/>
      <rect id="Rectangle_71-2" data-name="Rectangle 71" class="cls-1" width="3.265" height="16.922" transform="translate(47.339 34.935) rotate(180)"/>
      <rect id="Rectangle_72-2" data-name="Rectangle 72" class="cls-1" width="3.265" height="30.022" transform="translate(54.685 41.485) rotate(180)"/>
      <rect id="Rectangle_73-2" data-name="Rectangle 73" class="cls-1" width="3.265" height="25.655" transform="translate(62.03 39.302) rotate(180)"/>
      <rect id="Rectangle_74-2" data-name="Rectangle 74" class="cls-1" width="3.265" height="30.022" transform="translate(69.376 41.485) rotate(180)"/>
      <rect id="Rectangle_75-2" data-name="Rectangle 75" class="cls-1" width="3.265" height="40.939" transform="translate(76.722 46.944) rotate(180)"/>
      <rect id="Rectangle_76-2" data-name="Rectangle 76" class="cls-1" width="3.265" height="52.948" transform="translate(84.068 52.948) rotate(180)"/>
      <rect id="Rectangle_77-2" data-name="Rectangle 77" class="cls-1" width="3.265" height="44.215" transform="translate(91.413 48.581) rotate(180)"/>
      <rect id="Rectangle_78-2" data-name="Rectangle 78" class="cls-1" width="3.265" height="33.297" transform="translate(98.759 43.123) rotate(180)"/>
      <rect id="Rectangle_79-2" data-name="Rectangle 79" class="cls-1" width="3.265" height="23.472" transform="translate(106.105 38.21) rotate(180)"/>
      <rect id="Rectangle_80-2" data-name="Rectangle 80" class="cls-1" width="3.265" height="20.197" transform="translate(113.45 36.573) rotate(180)"/>
      <rect id="Rectangle_81-2" data-name="Rectangle 81" class="cls-1" width="3.265" height="20.197" transform="translate(120.796 36.573) rotate(180)"/>
      <rect id="Rectangle_82-2" data-name="Rectangle 82" class="cls-1" width="3.265" height="13.646" transform="translate(128.142 33.297) rotate(180)"/>
      <rect id="Rectangle_83-2" data-name="Rectangle 83" class="cls-1" width="3.265" height="35.481" transform="translate(135.488 44.215) rotate(180)"/>
      <rect id="Rectangle_84-2" data-name="Rectangle 84" class="cls-1" width="3.265" height="25.655" transform="translate(142.833 39.302) rotate(180)"/>
    </g>
    <rect id="Rectangle_85" data-name="Rectangle 85" class="cls-1" width="3.265" height="20.197" transform="translate(-65.036 522.509) rotate(180)"/>
    <rect id="Rectangle_86" data-name="Rectangle 86" class="cls-1" width="3.265" height="28.931" transform="translate(-57.69 526.876) rotate(180)"/>
    <rect id="Rectangle_87" data-name="Rectangle 87" class="cls-1" width="3.265" height="33.297" transform="translate(-50.344 529.059) rotate(180)"/>
    <rect id="Rectangle_88" data-name="Rectangle 88" class="cls-1" width="3.265" height="23.472" transform="translate(-42.999 524.146) rotate(180)"/>
    <rect id="Rectangle_89" data-name="Rectangle 89" class="cls-1" width="3.265" height="31.114" transform="translate(-35.653 527.968) rotate(180)"/>
    <rect id="Rectangle_90" data-name="Rectangle 90" class="cls-1" width="3.265" height="13.646" transform="translate(-28.307 519.234) rotate(180)"/>
    <rect id="Rectangle_91" data-name="Rectangle 91" class="cls-1" width="3.265" height="11.463" transform="translate(-20.961 518.142) rotate(180)"/>
    <rect id="Rectangle_92" data-name="Rectangle 92" class="cls-1" width="3.265" height="25.655" transform="translate(-13.616 525.238) rotate(180)"/>
    <rect id="Rectangle_93" data-name="Rectangle 93" class="cls-1" width="3.265" height="33.297" transform="translate(-6.27 529.059) rotate(180)"/>
    <rect id="Rectangle_94" data-name="Rectangle 94" class="cls-1" width="3.265" height="20.197" transform="translate(1.076 522.509) rotate(180)"/>
    <rect id="Rectangle_95" data-name="Rectangle 95" class="cls-1" width="3.265" height="11.463" transform="translate(8.421 518.142) rotate(180)"/>
    <rect id="Rectangle_96" data-name="Rectangle 96" class="cls-1" width="3.265" height="3.821" transform="translate(15.767 514.321) rotate(180)"/>
    <rect id="Rectangle_97" data-name="Rectangle 97" class="cls-1" width="3.265" height="11.463" transform="translate(23.113 518.142) rotate(180)"/>
    <rect id="Rectangle_98" data-name="Rectangle 98" class="cls-1" width="3.265" height="15.83" transform="translate(30.459 520.325) rotate(180)"/>
    <rect id="Rectangle_99" data-name="Rectangle 99" class="cls-1" width="3.265" height="24.564" transform="translate(37.804 524.692) rotate(180)"/>
    <rect id="Rectangle_100" data-name="Rectangle 100" class="cls-1" width="3.265" height="20.197" transform="translate(45.15 522.509) rotate(180)"/>
    <rect id="Rectangle_101" data-name="Rectangle 101" class="cls-1" width="3.265" height="33.297" transform="translate(52.496 529.059) rotate(180)"/>
    <rect id="Rectangle_102" data-name="Rectangle 102" class="cls-1" width="3.265" height="10.371" transform="translate(59.841 517.596) rotate(180)"/>
    <rect id="Rectangle_103" data-name="Rectangle 103" class="cls-1" width="3.265" height="10.371" transform="translate(67.187 517.596) rotate(180)"/>
    <rect id="Rectangle_104" data-name="Rectangle 104" class="cls-1" width="3.265" height="14.738" transform="translate(74.533 519.78) rotate(180)"/>
    <rect id="Rectangle_105" data-name="Rectangle 105" class="cls-1" width="3.265" height="4.913" transform="translate(81.878 514.867) rotate(180)"/>
  </g>
</svg>
